<mxfile host="app.diagrams.net" modified="2023-03-25T11:38:49.488Z" agent="Mozilla/5.0 (Macintosh; Intel Mac OS X 10_15_7) AppleWebKit/605.1.15 (KHTML, like Gecko) Version/16.1 Safari/605.1.15" version="21.1.1" etag="Y1LbmCK5QyYKGSsX0eHD" type="github">
  <diagram name="Seite-1" id="oWOuU8_M-tRmgAgubtK7">
    <mxGraphModel>
      <root>
        <mxCell id="0" />
        <mxCell id="1" parent="0" />
      </root>
    </mxGraphModel>
  </diagram>
</mxfile>
